Y9_100_1_ground_reaction
inDegrees=no
nColumns=28
nRows=90
DataType=double
version=3
OpenSimVersion=4.0
endheader
time	ground_force_1_vx	ground_force_1_vy	ground_force_1_vz	ground_force_1_px	ground_force_1_py	ground_force_1_pz	ground_torque_1_x	ground_torque_1_y	ground_torque_1_z	ground_force_2_vx	ground_force_2_vy	ground_force_2_vz	ground_force_2_px	ground_force_2_py	ground_force_2_pz	ground_torque_2_x	ground_torque_2_y	ground_torque_2_z	ground_force_3_vx	ground_force_3_vy	ground_force_3_vz	ground_force_3_px	ground_force_3_py	ground_force_3_pz	ground_torque_3_x	ground_torque_3_y	ground_torque_3_z
0.5925	0	0	-0	0	0	-0	-0	-0	0	0	0	-0	0	0	-0	-0	-0	0	0	0	-0	0	0	-0	-0	-0	0
0.593	0	0	-0	0	0	-0	-0	-0	0	0	0	-0	0	0	-0	-0	-0	0	0	0	-0	0	0	-0	-0	-0	0
0.5935	0	0	-0	0	0	-0	-0	-0	0	0	0	-0	0	0	-0	-0	-0	0	0	0	-0	0	0	-0	-0	-0	0
0.594	0	0	-0	0	0	-0	-0	-0	0	0	0	-0	0	0	-0	-0	-0	0	0	0	-0	0	0	-0	-0	-0	0
0.5945	0	0	-0	0	0	-0	-0	-0	0	0	0	-0	0	0	-0	-0	-0	0	0	0	-0	0	0	-0	-0	-0	0
0.595	0	0	-0	0	0	-0	-0	-0	0	0	0	-0	0	0	-0	-0	-0	0	0	0	-0	0	0	-0	-0	-0	0
0.5955	0	0	-0	0	0	-0	-0	-0	0	0	0	-0	0	0	-0	-0	-0	0	0	0	-0	0	0	-0	-0	-0	0
0.596	0	0	-0	0	0	-0	-0	-0	0	0	0	-0	0	0	-0	-0	-0	0	0	0	-0	0	0	-0	-0	-0	0
0.5965	0	0	-0	0	0	-0	-0	-0	0	0	0	-0	0	0	-0	-0	-0	0	0	0	-0	0	0	-0	-0	-0	0
0.597	0	0	-0	0	0	-0	-0	-0	0	0	0	-0	0	0	-0	-0	-0	0	0	0	-0	0	0	-0	-0	-0	0
0.5975	0	0	-0	0	0	-0	-0	-0	0	0	0	-0	0	0	-0	-0	-0	0	0	0	-0	0	0	-0	-0	-0	0
0.598	0	0	-0	0	0	-0	-0	-0	0	0	0	-0	0	0	-0	-0	-0	0	0	0	-0	0	0	-0	-0	-0	0
0.5985	0	0	-0	0	0	-0	-0	-0	0	0	0	-0	0	0	-0	-0	-0	0	0	0	-0	0	0	-0	-0	-0	0
0.599	0	0	-0	0	0	-0	-0	-0	0	0	0	-0	0	0	-0	-0	-0	0	0	0	-0	0	0	-0	-0	-0	0
0.5995	0	0	-0	0	0	-0	-0	-0	0	0	0	-0	0	0	-0	-0	-0	0	0	0	-0	0	0	-0	-0	-0	0
0.6	0	0	-0	0	0	-0	-0	-0	0	0	0	-0	0	0	-0	-0	-0	0	0	0	-0	0	0	-0	-0	-0	0
0.6005	0	0	-0	0	0	-0	-0	-0	0	0	0	-0	0	0	-0	-0	-0	0	0	0	-0	0	0	-0	-0	-0	0
0.601	0	0	-0	0	0	-0	-0	-0	0	0	0	-0	0	0	-0	-0	-0	0	0	0	-0	0	0	-0	-0	-0	0
0.6015	0	0	-0	0	0	-0	-0	-0	0	0	0	-0	0	0	-0	-0	-0	0	0	0	-0	0	0	-0	-0	-0	0
0.602	0	0	-0	0	0	-0	-0	-0	0	0	0	-0	0	0	-0	-0	-0	0	0	0	-0	0	0	-0	-0	-0	0
0.6025	0	0	-0	0	0	-0	-0	-0	0	0	0	-0	0	0	-0	-0	-0	0	0	0	-0	0	0	-0	-0	-0	0
0.603	0	0	-0	0	0	-0	-0	-0	0	0	0	-0	0	0	-0	-0	-0	0	0	0	-0	0	0	-0	-0	-0	0
0.6035	0	0	-0	0	0	-0	-0	-0	0	0	0	-0	0	0	-0	-0	-0	0	0	0	-0	0	0	-0	-0	-0	0
0.604	0	0	-0	0	0	-0	-0	-0	0	0	0	-0	0	0	-0	-0	-0	0	0	0	-0	0	0	-0	-0	-0	0
0.6045	0	0	-0	0	0	-0	-0	-0	0	0	0	-0	0	0	-0	-0	-0	0	0	0	-0	0	0	-0	-0	-0	0
0.605	0	0	-0	0	0	-0	-0	-0	0	0	0	-0	0	0	-0	-0	-0	0	0	0	-0	0	0	-0	-0	-0	0
0.6055	0	0	-0	0	0	-0	-0	-0	0	0	0	-0	0	0	-0	-0	-0	0	0	0	-0	0	0	-0	-0	-0	0
0.606	0	0	-0	0	0	-0	-0	-0	0	0	0	-0	0	0	-0	-0	-0	0	0	0	-0	0	0	-0	-0	-0	0
0.6065	0	0	-0	0	0	-0	-0	-0	0	0	0	-0	0	0	-0	-0	-0	0	0	0	-0	0	0	-0	-0	-0	0
0.607	0	0	-0	0	0	-0	-0	-0	0	0	0	-0	0	0	-0	-0	-0	0	0	0	-0	0	0	-0	-0	-0	0
0.6075	0	0	-0	0	0	-0	-0	-0	0	0	0	-0	0	0	-0	-0	-0	0	0	0	-0	0	0	-0	-0	-0	0
0.608	0	0	-0	0	0	-0	-0	-0	0	0	0	-0	0	0	-0	-0	-0	0	0	0	-0	0	0	-0	-0	-0	0
0.6085	0	0	-0	0	0	-0	-0	-0	0	0	0	-0	0	0	-0	-0	-0	0	0	0	-0	0	0	-0	-0	-0	0
0.609	0	0	-0	0	0	-0	-0	-0	0	0	0	-0	0	0	-0	-0	-0	0	0	0	-0	0	0	-0	-0	-0	0
0.6095	0	0	-0	0	0	-0	-0	-0	0	0	0	-0	0	0	-0	-0	-0	0	0	0	-0	0	0	-0	-0	-0	0
0.61	0	0	-0	0	0	-0	-0	-0	0	0	0	-0	0	0	-0	-0	-0	0	0	0	-0	0	0	-0	-0	-0	0
0.6105	0	0	-0	0	0	-0	-0	-0	0	0	0	-0	0	0	-0	-0	-0	0	0	0	-0	0	0	-0	-0	-0	0
0.611	0	0	-0	0	0	-0	-0	-0	0	0	0	-0	0	0	-0	-0	-0	0	0	0	-0	0	0	-0	-0	-0	0
0.6115	0	0	-0	0	0	-0	-0	-0	0	0	0	-0	0	0	-0	-0	-0	0	0	0	-0	0	0	-0	-0	-0	0
0.612	0	0	-0	0	0	-0	-0	-0	0	0	0	-0	0	0	-0	-0	-0	0	0	0	-0	0	0	-0	-0	-0	0
0.6125	0	0	-0	0	0	-0	-0	-0	0	0	0	-0	0	0	-0	-0	-0	0	0	0	-0	0	0	-0	-0	-0	0
0.613	0	0	-0	0	0	-0	-0	-0	0	0	0	-0	0	0	-0	-0	-0	0	0	0	-0	0	0	-0	-0	-0	0
0.6135	0	0	-0	0	0	-0	-0	-0	0	0	0	-0	0	0	-0	-0	-0	0	0	0	-0	0	0	-0	-0	-0	0
0.614	0	0	-0	0	0	-0	-0	-0	0	0	0	-0	0	0	-0	-0	-0	0	0	0	-0	0	0	-0	-0	-0	0
0.6145	0	0	-0	0	0	-0	-0	-0	0	0	0	-0	0	0	-0	-0	-0	0	0	0	-0	0	0	-0	-0	-0	0
0.615	0	0	-0	0	0	-0	-0	-0	0	0	0	-0	0	0	-0	-0	-0	0	0	0	-0	0	0	-0	-0	-0	0
0.6155	0	0	-0	0	0	-0	-0	-0	0	0	0	-0	0	0	-0	-0	-0	0	0	0	-0	0	0	-0	-0	-0	0
0.616	0	0	-0	0	0	-0	-0	-0	0	0	0	-0	0	0	-0	-0	-0	0	0	0	-0	0	0	-0	-0	-0	0
0.6165	0	0	-0	0	0	-0	-0	-0	0	0	0	-0	0	0	-0	-0	-0	0	0	0	-0	0	0	-0	-0	-0	0
0.617	0	0	-0	0	0	-0	-0	-0	0	0	0	-0	0	0	-0	-0	-0	0	0	0	-0	0	0	-0	-0	-0	0
0.6175	0	0	-0	0	0	-0	-0	-0	0	0	0	-0	0	0	-0	-0	-0	0	0	0	-0	0	0	-0	-0	-0	0
0.618	0	0	-0	0	0	-0	-0	-0	0	0	0	-0	0	0	-0	-0	-0	0	0	0	-0	0	0	-0	-0	-0	0
0.6185	0	0	-0	0	0	-0	-0	-0	0	0	0	-0	0	0	-0	-0	-0	0	0	0	-0	0	0	-0	-0	-0	0
0.619	0	0	-0	0	0	-0	-0	-0	0	0	0	-0	0	0	-0	-0	-0	0	0	0	-0	0	0	-0	-0	-0	0
0.6195000000000001	0	0	-0	0	0	-0	-0	-0	0	0	0	-0	0	0	-0	-0	-0	0	0	0	-0	0	0	-0	-0	-0	0
0.62	0	0	-0	0	0	-0	-0	-0	0	0	0	-0	0	0	-0	-0	-0	0	0	0	-0	0	0	-0	-0	-0	0
0.6205000000000001	0	0	-0	0	0	-0	-0	-0	0	0	0	-0	0	0	-0	-0	-0	0	0	0	-0	0	0	-0	-0	-0	0
0.621	0	0	-0	0	0	-0	-0	-0	0	0	0	-0	0	0	-0	-0	-0	0	0	0	-0	0	0	-0	-0	-0	0
0.6215000000000001	0	0	-0	0	0	-0	-0	-0	0	0	0	-0	0	0	-0	-0	-0	0	0	0	-0	0	0	-0	-0	-0	0
0.622	2.19	16.8	-0.62	-0.50154	-0.00163	-0.2784700000000001	-0	0.0614	0	0	0	-0	0	0	-0	-0	-0	0	0	0	-0	0	0	-0	-0	-0	0
0.6225000000000001	10.19	42.03	-2.63	-0.50545	-0.00163	-0.25585	-0	0.42287	0	0	0	-0	0	0	-0	-0	-0	0	0	0	-0	0	0	-0	-0	-0	0
0.623	29.72	54.8	-4.69	-0.51867	-0.00163	-0.24267	-0	0.6517200000000001	0	0	0	-0	0	0	-0	-0	-0	0	0	0	-0	0	0	-0	-0	-0	0
0.6235000000000001	49.57	49.44	-6.85	-0.52835	-0.00163	-0.25	-0	-0.28073	0	0	0	-0	0	0	-0	-0	-0	0	0	0	-0	0	0	-0	-0	-0	0
0.624	54.25	48.12	-8.31	-0.51547	-0.00163	-0.26173	-0	-1.53907	0	0	0	-0	0	0	-0	-0	-0	0	0	0	-0	0	0	-0	-0	-0	0
0.6245000000000001	40.21	57.73	-9.01	-0.49803	-0.00163	-0.24576	-0	-0.30576	0	0	0	-0	0	0	-0	-0	-0	0	0	0	-0	0	0	-0	-0	-0	0
0.625	22.55	56.09	-9.74	-0.5095	-0.00163	-0.24286	-0	0.52459	0	0	0	-0	0	0	-0	-0	-0	0	0	0	-0	0	0	-0	-0	-0	0
0.6254999999999999	20.35	49.07	-10.51	-0.50256	-0.00163	-0.25937	-0	0.76698	0	0	0	-0	0	0	-0	-0	-0	0	0	0	-0	0	0	-0	-0	-0	0
0.626	34.43	52.03	-11.21	-0.49142	-0.00163	-0.25606	-0	0.6276900000000001	0	0	0	-0	0	0	-0	-0	-0	0	0	0	-0	0	0	-0	-0	-0	0
0.6264999999999999	48.54	60.57	-12.93	-0.5075	-0.00163	-0.24603	-0	0.00684	0	0	0	-0	0	0	-0	-0	-0	0	0	0	-0	0	0	-0	-0	-0	0
0.627	53.25	64.83	-13.6	-0.52511	-0.00163	-0.25181	-0	-1.15731	0	0	0	-0	0	0	-0	-0	-0	0	0	0	-0	0	0	-0	-0	-0	0
0.6274999999999999	50.01	70.39	-13.95	-0.5103799999999999	-0.00163	-0.24931	-0	-0.79016	0	0	0	-0	0	0	-0	-0	-0	0	0	0	-0	0	0	-0	-0	-0	0
0.628	42.79	73.08	-15.05	-0.49239	-0.00163	-0.24971	-0	0.42414	0	0	0	-0	0	0	-0	-0	-0	0	0	0	-0	0	0	-0	-0	-0	0
0.6284999999999999	41.73	78.63	-15.74	-0.49629	-0.00163	-0.25143	-0	0.991	0	0	0	-0	0	0	-0	-0	-0	0	0	0	-0	0	0	-0	-0	-0	0
0.629	51.14	82.92	-16.4	-0.5126000000000001	-0.00163	-0.24878	-0	0.48813	0	0	0	-0	0	0	-0	-0	-0	0	0	0	-0	0	0	-0	-0	-0	0
0.6294999999999999	64.13	84.48999999999999	-17.46	-0.51131	-0.00163	-0.24829	-0	-0.47232	0	0	0	-0	0	0	-0	-0	-0	0	0	0	-0	0	0	-0	-0	-0	0
0.63	69.91	90.19	-18.16	-0.50038	-0.00163	-0.2498	-0	-1.1492	0	0	0	-0	0	0	-0	-0	-0	0	0	0	-0	0	0	-0	-0	-0	0
0.6304999999999999	64.16	97.08	-19.21	-0.50061	-0.00163	-0.24764	-0	-0.35195	0	0	0	-0	0	0	-0	-0	-0	0	0	0	-0	0	0	-0	-0	-0	0
0.631	54.44	98.31	-20.27	-0.51128	-0.00163	-0.24743	-0	0.61971	0	0	0	-0	0	0	-0	-0	-0	0	0	0	-0	0	0	-0	-0	-0	0
0.6315	54.08	102.49	-21.34	-0.50513	-0.00163	-0.25114	-0	0.8169	0	0	0	-0	0	0	-0	-0	-0	0	0	0	-0	0	0	-0	-0	-0	0
0.632	63.47	111.02	-21.67	-0.49526	-0.00163	-0.24801	-0	0.30625	0	0	0	-0	0	0	-0	-0	-0	0	0	0	-0	0	0	-0	-0	-0	0
0.6325	70.36	116.71	-23.06	-0.49797	-0.00163	-0.24464	-0	-0.54101	0	0	0	-0	0	0	-0	-0	-0	0	0	0	-0	0	0	-0	-0	-0	0
0.633	67.48999999999999	116.67	-23.39	-0.51128	-0.00163	-0.24849	-0	-1.10461	0	0	0	-0	0	0	-0	-0	-0	0	0	0	-0	0	0	-0	-0	-0	0
0.6335	58.11	120.73	-24.11	-0.50478	-0.00163	-0.24682	-0	-0.09079999999999999	0	0	0	-0	0	0	-0	-0	-0	0	0	0	-0	0	0	-0	-0	-0	0
0.634	48.01	123.39	-24.49	-0.49523	-0.00163	-0.24688	-0	0.99721	0	0	0	-0	0	0	-0	-0	-0	0	0	0	-0	0	0	-0	-0	-0	0
0.6345	44.04	126.15	-24.85	-0.49256	-0.00163	-0.24694	-0	0.74786	0	0	0	-0	0	0	-0	-0	-0	0	0	0	-0	0	0	-0	-0	-0	0
0.635	46.95	129	-24.45	-0.50026	-0.00163	-0.24566	-0	-0.1626	0	0	0	-0	0	0	-0	-0	-0	0	0	0	-0	0	0	-0	-0	-0	0
0.6355	51.29	129.06	-25.16	-0.50301	-0.00163	-0.24479	-0	-0.77918	0	0	0	-0	0	0	-0	-0	-0	0	0	0	-0	0	0	-0	-0	-0	0
0.636	50.55	129.06	-25.17	-0.49769	-0.00163	-0.24697	-0	-0.56512	0	0	0	-0	0	0	-0	-0	-0	0	0	0	-0	0	0	-0	-0	-0	0
0.6365	41.54	131.72	-25.18	-0.49534	-0.00163	-0.24585	-0	0.41031	0	0	0	-0	0	0	-0	-0	-0	0	0	0	-0	0	0	-0	-0	-0	0
0.637	30.01	131.57	-26.26	-0.49904	-0.00163	-0.24521	-0	0.59299	0	0	0	-0	0	0	-0	-0	-0	0	0	0	-0	0	0	-0	-0	-0	0
